<svg fill="none" height="51" viewBox="0 0 58 51" width="58" xmlns="http://www.w3.org/2000/svg"><path d="m29.5918 5.80867c8.1421.36006 15.5136 6.05033 17.7805 14.51043 2.7863 10.3987-3.1903 21.0272-13.3555 23.751s-20.6554-3.4925-23.4417-13.8912" stroke="#fff" stroke-miterlimit="10" stroke-width="2"/><g fill="#fff"><path d="m32.5962 9.33063-1.8256-3.46463 1.1741-3.71364-8.0141 4.27556z"/><path d="m23.2842 25.4082h.9502c.597-.0091 1.0664-.1663 1.4082-.4717.3418-.3053.5127-.7177.5127-1.2373 0-1.1666-.5811-1.75-1.7432-1.75-.5469 0-.9844.1572-1.3125.4717-.3236.3099-.4853.7223-.4853 1.2373h-1.2647c0-.7884.2871-1.4424.8613-1.9619.5788-.5241 1.3125-.7861 2.2012-.7861.9388 0 1.6748.2483 2.208.7451.5332.4967.7998 1.1871.7998 2.0713 0 .4329-.1413.8522-.4238 1.2578-.278.4056-.6585.7086-1.1416.9092.5469.1731.9684.4602 1.2646.8613.3008.401.4512.8909.4512 1.4697 0 .8932-.2917 1.6019-.875 2.126s-1.3421.7861-2.2764.7861c-.9342 0-1.6953-.2529-2.2832-.7588-.5833-.5058-.875-1.1735-.875-2.0029h1.2715c0 .5241.1709.9434.5127 1.2578.3418.3145.7998.4717 1.374.4717.6107 0 1.0778-.1595 1.4014-.4785s.4854-.777.4854-1.374c0-.5788-.1778-1.0232-.5332-1.3331-.3555-.3099-.8682-.4694-1.5381-.4785h-.9502zm12.2637 1.3467c0 1.4811-.253 2.5817-.7588 3.3017-.5059.7201-1.2966 1.0801-2.3721 1.0801-1.0619 0-1.848-.3509-2.3584-1.0527-.5104-.7064-.7747-1.7591-.793-3.1582v-1.6885c0-1.4629.253-2.5498.7588-3.2607.5059-.711 1.2988-1.0664 2.3789-1.0664 1.071 0 1.8594.344 2.3653 1.0322.5058.6836.7656 1.7409.7793 3.1719zm-1.2647-1.7295c0-1.071-.1504-1.8503-.4512-2.3379-.3008-.4922-.777-.7383-1.4287-.7383-.6471 0-1.1188.2438-1.415.7315-.2962.4876-.4489 1.2373-.458 2.249v2.0234c0 1.0755.1549 1.8708.4648 2.3858.3145.5104.7884.7656 1.4219.7656.6243 0 1.0869-.2415 1.3877-.7246.3053-.4831.4648-1.2442.4785-2.2832z"/></g></svg>