<svg fill="none" height="51" viewBox="0 0 59 51" width="59" xmlns="http://www.w3.org/2000/svg"><path d="m28.6446 5.80873c-8.142.36006-15.5136 6.05037-17.7804 14.51047-2.78636 10.3986 3.1902 21.0272 13.3554 23.751 10.1653 2.7237 20.6554-3.4926 23.4417-13.8912" stroke="#fff" stroke-miterlimit="10" stroke-width="2"/><g fill="#fff"><path d="m25.6403 9.33069 1.8255-3.46463-1.174-3.71364 8.0141 4.27556z"/><path d="m24.2843 25.408h.9502c.597-.0091 1.0664-.1663 1.4082-.4717.3418-.3053.5127-.7177.5127-1.2373 0-1.1666-.5811-1.75-1.7432-1.75-.5468 0-.9843.1573-1.3125.4717-.3235.3099-.4853.7223-.4853 1.2373h-1.2647c0-.7884.2871-1.4424.8614-1.9619.5787-.5241 1.3125-.7861 2.2011-.7861.9388 0 1.6748.2483 2.208.7451.5332.4967.7998 1.1872.7998 2.0713 0 .4329-.1412.8522-.4238 1.2578-.278.4056-.6585.7087-1.1416.9092.5469.1731.9684.4603 1.2647.8613.3007.401.4511.891.4511 1.4697 0 .8933-.2916 1.6019-.875 2.126-.5833.5241-1.3421.7861-2.2763.7861-.9343 0-1.6953-.2529-2.2832-.7588-.5834-.5058-.875-1.1735-.875-2.0029h1.2714c0 .5241.1709.9434.5127 1.2578.3418.3145.7998.4717 1.3741.4717.6106 0 1.0778-.1595 1.4013-.4785.3236-.319.4854-.777.4854-1.374 0-.5788-.1777-1.0231-.5332-1.333s-.8682-.4694-1.5381-.4786h-.9502zm12.2637 1.3467c0 1.4811-.253 2.5817-.7588 3.3018-.5059.72-1.2966 1.08-2.3721 1.08-1.0618 0-1.848-.3509-2.3584-1.0527-.5104-.7064-.7747-1.7591-.793-3.1582v-1.6885c0-1.4629.253-2.5498.7588-3.2607.5059-.711 1.2989-1.0664 2.3789-1.0664 1.071 0 1.8594.344 2.3653 1.0322.5058.6836.7656 1.7409.7793 3.1719zm-1.2647-1.7295c0-1.071-.1504-1.8503-.4511-2.3379-.3008-.4922-.7771-.7383-1.4288-.7383-.6471 0-1.1188.2439-1.415.7315s-.4489 1.2373-.458 2.249v2.0234c0 1.0756.1549 1.8708.4648 2.3858.3145.5104.7885.7656 1.4219.7656.6244 0 1.0869-.2415 1.3877-.7246.3053-.4831.4649-1.2441.4785-2.2832z"/></g></svg>